<svg width="279" height="40" viewBox="0 0 279 40" fill="none" xmlns="http://www.w3.org/2000/svg">
<path fill-rule="evenodd" clip-rule="evenodd" d="M7.1468 13.9533C6.60013 7.06 11.7001 0 20.2268 0C23.0535 0 26.0268 0.72 28.5268 1.90667C35.3068 5.10667 40.0001 12.0067 40.0001 20C40.0001 27.3867 35.9935 33.84 30.0201 37.3C32.9001 34.4733 34.6068 30.42 34.2468 25.9267C33.6668 18.58 26.7401 12.6 20.4535 12.6C14.6068 12.6 12.3201 17.7 12.8868 21.1667C13.1001 22.4667 13.6601 23.6533 14.4735 24.62C13.4201 24.0533 12.4001 23.3267 11.4601 22.4533C8.9268 20.0933 7.39347 17.0733 7.1468 13.9533ZM32.8533 26.0465C33.4 32.9399 28.3 39.9999 19.7733 39.9999C16.9467 39.9999 13.9733 39.2799 11.4733 38.0932C4.69333 34.8932 0 27.9932 0 19.9999C0 12.6132 4.00667 6.15987 9.98 2.69987C7.1 5.52654 5.39333 9.57987 5.75333 14.0732C6.33333 21.4199 13.26 27.3999 19.5467 27.3999C25.3933 27.3999 27.68 22.2999 27.1133 18.8332C26.9 17.5332 26.34 16.3465 25.5267 15.3799C26.58 15.9465 27.6 16.6732 28.54 17.5465C31.0733 19.9065 32.6067 22.9265 32.8533 26.0465ZM61.854 22.1648V18.9783H72.5201C72.6288 19.5398 72.6928 20.2082 72.6928 20.9319C72.6928 23.3219 72.0385 26.2805 69.9339 28.3862C67.8858 30.5202 65.269 31.6579 61.7988 31.6579C55.3706 31.6579 49.9662 26.4226 49.9662 19.9927C49.9662 13.5627 55.3706 8.32747 61.7988 8.32747C65.3542 8.32747 67.8858 9.7219 69.7918 11.5427L67.5445 13.7906C66.1789 12.5102 64.3304 11.5146 61.7988 11.5146C57.1057 11.5146 53.4364 15.2984 53.4364 19.9933C53.4364 24.6881 57.1057 28.472 61.7988 28.472C64.8426 28.472 66.5777 27.2485 67.6867 26.1389C68.5906 25.235 69.1856 23.9381 69.4171 22.1654H61.8546L61.854 22.1648ZM81.408 31.6587C85.5607 31.6587 88.9458 28.4722 88.9458 24.1474C88.9458 19.7944 85.5607 16.6361 81.408 16.6361C77.2553 16.6361 73.8703 19.8226 73.8703 24.1474C73.8703 28.4722 77.2553 31.6587 81.408 31.6587ZM81.4086 19.5952C83.6841 19.5952 85.6465 21.4443 85.6465 24.1474C85.6465 26.8217 83.6847 28.6995 81.4086 28.6995C79.1325 28.6995 77.1701 26.8505 77.1701 24.1474C77.1701 21.4443 79.1331 19.5952 81.4086 19.5952ZM105.39 24.1474C105.39 28.4722 102.005 31.6587 97.8518 31.6587C93.6991 31.6587 90.314 28.4722 90.314 24.1474C90.314 19.8226 93.6991 16.6361 97.8518 16.6361C102.005 16.6361 105.39 19.7944 105.39 24.1474ZM102.09 24.1474C102.09 21.4443 100.128 19.5952 97.8524 19.5952C95.5769 19.5952 93.6139 21.4443 93.6139 24.1474C93.6139 26.8505 95.5763 28.6995 97.8524 28.6995C100.128 28.6995 102.09 26.8217 102.09 24.1474ZM121.151 30.5773V17.0913H118.022V18.3148H117.908C117.169 17.4325 115.747 16.6361 113.954 16.6361C110.199 16.6361 106.758 19.9647 106.758 24.1756C106.758 28.3864 110.199 31.6581 113.954 31.6581C115.747 31.6581 117.169 30.8616 117.908 29.9512H118.022V31.0326C118.022 33.906 116.486 35.4425 114.011 35.4425C111.991 35.4425 110.74 33.9917 110.228 32.7682L107.355 33.9635C108.181 35.9547 110.37 38.4017 114.011 38.4017C117.88 38.4017 121.151 36.1257 121.151 30.5773ZM114.239 19.5947C116.486 19.5947 118.249 21.5295 118.249 24.1756C118.249 26.7935 116.515 28.6995 114.239 28.6995C111.963 28.6995 110.057 26.8217 110.057 24.1756C110.057 21.5295 111.991 19.5947 114.239 19.5947ZM126.739 9.19857V31.2033H123.44V9.19857H126.739ZM142.041 28.3294L139.481 26.6225L139.481 26.6219C138.627 27.8736 137.461 28.6989 135.782 28.6989C134.104 28.6989 132.91 27.9306 132.141 26.4228L142.182 22.2689L141.841 21.4154C141.216 19.7367 139.281 16.6354 135.413 16.6354C131.545 16.6354 128.33 19.6798 128.33 24.1467C128.33 28.3576 131.516 31.658 135.783 31.658C139.225 31.658 141.216 29.5529 142.041 28.3294ZM138.315 21.1312L131.602 23.9194L131.602 23.92C131.516 21.0178 133.849 19.5382 135.527 19.5382C136.836 19.5382 137.945 20.1925 138.315 21.1312ZM152 10.5221H158.592C165.86 10.5221 169.198 14.5179 169.198 20.9014C169.198 27.2573 165.86 31.2254 158.592 31.2254H152V10.5221ZM158.503 28.741C164.233 28.741 166.219 25.7805 166.219 20.9014C166.219 15.9947 164.24 12.972 158.503 12.972H154.924V28.741H158.503ZM173.438 24.5728H184.933C184.961 24.0346 184.961 23.5929 184.961 23.1788C184.961 19.397 182.244 16.2018 177.927 16.2018C173.555 16.2018 170.57 19.3073 170.57 23.9517C170.57 28.541 173.583 31.5844 177.9 31.5844C181.354 31.5844 183.747 29.514 184.547 26.7605H181.623C181.03 28.2097 179.734 29.1552 177.9 29.1552C175.624 29.1552 173.617 27.561 173.438 24.5728ZM177.9 18.631C180.203 18.631 181.947 20.1078 182.065 22.5025H173.493C173.824 19.9629 175.714 18.631 177.9 18.631ZM200.863 24.5728H189.367C189.547 27.561 191.553 29.1552 193.829 29.1552C195.663 29.1552 196.96 28.2097 197.553 26.7605H200.476C199.677 29.514 197.284 31.5844 193.829 31.5844C189.512 31.5844 186.499 28.541 186.499 23.9517C186.499 19.3073 189.485 16.2018 193.857 16.2018C198.173 16.2018 200.89 19.397 200.89 23.1788C200.89 23.5929 200.89 24.0346 200.863 24.5728ZM197.994 22.5025C197.877 20.1078 196.132 18.631 193.829 18.631C191.643 18.631 189.754 19.9629 189.423 22.5025H197.994ZM205.262 16.5538H202.635V37.7332H205.559V28.9205C206.566 30.6113 208.393 31.5844 210.731 31.5844C215.041 31.5844 217.999 28.3615 217.999 23.9241C217.999 19.4867 215.041 16.2018 210.758 16.2018C208.131 16.2018 206.476 17.4716 205.559 18.8932L205.262 16.5538ZM210.289 18.7414C213.068 18.7414 215.02 20.8463 215.02 23.8896C215.02 26.9675 213.068 29.0379 210.289 29.0379C207.538 29.0379 205.559 26.9675 205.559 23.8896C205.559 20.8394 207.538 18.7414 210.289 18.7414ZM240.809 10.5221V31.2254H237.885V15.6358L231.383 28.2648H229.135L222.604 15.6358V31.2254H219.681V10.5221H223.108L230.259 24.5107L237.382 10.5221H240.809ZM244.533 9.92839C243.436 9.92839 242.609 10.7013 242.609 11.7641C242.609 12.8268 243.436 13.6274 244.533 13.6274C245.657 13.6274 246.484 12.8268 246.484 11.7641C246.484 10.6944 245.657 9.92839 244.533 9.92839ZM246.008 16.5534H243.085V31.2252H246.008V16.5534ZM261.821 22.7648V31.2255H258.925V23.0615C258.925 20.1631 257.711 18.7138 255.346 18.7138C252.953 18.7138 251.209 20.4598 251.209 23.655V31.2255H248.285V16.5538H250.884L251.091 19.1279C252.036 17.3267 253.87 16.2018 256.146 16.2018C259.663 16.2018 261.821 18.3619 261.821 22.7648ZM270.669 16.1327C266.352 16.1327 263.428 19.3555 263.428 23.7929C263.428 28.2303 266.359 31.5153 270.634 31.5153C273.268 31.5153 274.923 30.2455 275.868 28.8238L276.164 31.1633H278.792V9.86654H275.868V18.7966C274.868 17.1058 273.034 16.1327 270.669 16.1327ZM271.11 18.6792C273.889 18.6792 275.84 20.7496 275.84 23.8274C275.84 26.8708 273.889 28.9688 271.11 28.9757C268.359 28.9757 266.379 26.8708 266.379 23.8274C266.379 20.7496 268.359 18.6792 271.11 18.6792Z" fill="black"/>
</svg>
